<svg xmlns="http://www.w3.org/2000/svg" width="46" height="65" fill="none" viewBox="0 0 46 65"><path fill="#fff" d="M0 1.161V35.57c0 .641.52 1.161 1.162 1.161h6.816c.641 0 1.161-.52 1.161-1.161V10.387c0-.641.52-1.161 1.162-1.161h6.903c.641 0 1.161.52 1.161 1.161V26.42c0 .641.52 1.161 1.162 1.161h6.816c.641 0 1.161-.52 1.161-1.161V10.387c0-.641.52-1.161 1.162-1.161h6.903c.642 0 1.161.52 1.161 1.161v6.816c0 .642.52 1.162 1.162 1.162h6.947c.641 0 1.161-.52 1.161-1.162V1.161C46 .52 45.48 0 44.839 0H1.162C.52 0 0 .52 0 1.161m46 62.075V28.83c0-.642-.52-1.162-1.161-1.162h-6.817c-.641 0-1.161.52-1.161 1.162v25.18c0 .642-.52 1.162-1.161 1.162h-6.904c-.641 0-1.161-.52-1.161-1.162V37.98a1.16 1.16 0 0 0-1.162-1.161h-6.816c-.641 0-1.161.52-1.161 1.16V54.01c0 .642-.52 1.162-1.162 1.162h-6.903c-.641 0-1.161-.52-1.161-1.162v-6.816c0-.641-.52-1.161-1.162-1.161H1.161c-.641 0-1.161.52-1.161 1.161v16.042c0 .642.52 1.162 1.161 1.162H44.84c.641 0 1.161-.52 1.161-1.162"/></svg>