<svg width="20" height="20" viewBox="0 0 20 20" fill="none" xmlns="http://www.w3.org/2000/svg">
<path d="M10 1.66669C14.6024 1.66669 18.3334 5.39765 18.3334 10C18.3334 14.6024 14.6024 18.3334 10 18.3334C8.63299 18.3334 7.31265 18.0033 6.12983 17.3819L2.55451 18.3128C2.17594 18.4114 1.78911 18.1845 1.6905 17.8059C1.66001 17.6888 1.66001 17.5659 1.69048 17.4489L2.62077 13.8752C1.99769 12.6911 1.66669 11.369 1.66669 10C1.66669 5.39765 5.39765 1.66669 10 1.66669ZM11.0431 10.8334H7.29169L7.20688 10.8391C6.90182 10.8804 6.66669 11.1419 6.66669 11.4584C6.66669 11.7748 6.90182 12.0363 7.20688 12.0776L7.29169 12.0834H11.0431L11.1279 12.0776C11.433 12.0363 11.6681 11.7748 11.6681 11.4584C11.6681 11.1419 11.433 10.8804 11.1279 10.8391L11.0431 10.8334ZM12.7084 7.91669H7.29169L7.20688 7.92239C6.90182 7.96378 6.66669 8.22527 6.66669 8.54169C6.66669 8.8581 6.90182 9.1196 7.20688 9.16098L7.29169 9.16669H12.7084L12.7932 9.16098C13.0982 9.1196 13.3334 8.8581 13.3334 8.54169C13.3334 8.22527 13.0982 7.96378 12.7932 7.92239L12.7084 7.91669Z" fill="#4460EF"/>
</svg>
